<svg width="16" height="16" viewBox="0 0 16 16" fill="none" xmlns="http://www.w3.org/2000/svg">
<path fill-rule="evenodd" clip-rule="evenodd" d="M2.00214 8.1333C2.00108 8.08964 2 8.04554 2 8.00036C2 3.58248 5.58248 0 10.0039 0V7.37487C10.0041 7.45638 9.98699 7.53699 9.95361 7.61135C9.92024 7.68571 9.87139 7.7521 9.81034 7.80609C9.74928 7.86009 9.67741 7.90044 9.59953 7.92446C9.52164 7.94849 9.43953 7.95563 9.35867 7.94542C9.26703 7.93248 9.17966 7.89837 9.10349 7.8458C9.02732 7.79322 8.96444 7.72363 8.91984 7.64254L8.22462 6.43452C7.65724 6.61838 7.12326 6.89263 6.64328 7.24667L7.08141 8.18632C7.24905 8.54837 7.12508 8.97945 6.77148 9.18936C6.54608 9.32108 6.26573 9.32108 6.02906 9.2126L5.18239 8.81603C4.95321 9.16777 4.76799 9.54626 4.63086 9.94304L5.15915 10.3121C5.29747 10.41 5.40128 10.5491 5.45569 10.7095C5.5101 10.87 5.51232 11.0435 5.46203 11.2053C5.37962 11.4694 5.15422 11.6681 4.87951 11.7188L4.31601 11.8195C4.31601 11.8195 4.30755 11.971 4.30755 12.0174V12.021C4.3143 12.3237 4.34682 12.6253 4.40476 12.9226H4.64988C4.79676 12.9224 4.93871 12.9755 5.04945 13.072C5.16019 13.1685 5.23219 13.3018 5.25213 13.4473C5.31564 13.8749 5.43721 14.2917 5.61348 14.6863C5.5205 14.6286 5.42681 14.5624 5.33736 14.4962C5.29146 14.4657 5.25077 14.4353 5.20507 14.4012C5.19256 14.3918 5.17967 14.3822 5.16619 14.3722C5.08519 14.3102 5.00348 14.244 4.92177 14.1778C4.89178 14.1501 4.86003 14.1241 4.82766 14.0976C4.80985 14.0831 4.79185 14.0684 4.77385 14.0531C4.73159 14.0186 4.69215 13.9834 4.64988 13.9446C4.62241 13.9214 4.59917 13.9017 4.57592 13.8784C4.52521 13.8362 4.47872 13.7932 4.43223 13.7467C4.39339 13.7108 4.35456 13.6725 4.31531 13.6337C4.30757 13.6261 4.29983 13.6184 4.29206 13.6108C4.28416 13.6028 4.27618 13.5947 4.26814 13.5866C4.22089 13.5389 4.17146 13.489 4.12512 13.4361C4.02017 13.3191 3.91944 13.2022 3.81801 13.0825C3.81001 13.0746 3.80356 13.0653 3.79899 13.055C3.64755 12.8683 3.50385 12.6775 3.37143 12.4802C3.35616 12.4571 3.3408 12.4345 3.32558 12.412C3.29446 12.3662 3.26386 12.3211 3.23548 12.2738C3.189 12.2083 3.14603 12.1386 3.10729 12.0682C3.08301 12.0293 3.06012 11.9888 3.03687 11.9477C3.02302 11.9232 3.00905 11.8985 2.99459 11.8738C2.98961 11.8665 2.98637 11.859 2.98358 11.8525C2.98202 11.8488 2.9806 11.8455 2.97909 11.8428C2.8605 11.6329 2.75419 11.4163 2.66071 11.194C2.5635 10.9686 2.47334 10.7397 2.39586 10.5023C2.39434 10.4971 2.39347 10.4927 2.3927 10.4888C2.39168 10.4836 2.39082 10.4792 2.38882 10.4749C2.34162 10.3276 2.29866 10.1755 2.25639 10.0205C2.24242 9.96562 2.22879 9.90858 2.21502 9.85093C2.20936 9.82723 2.20368 9.80343 2.19793 9.77963C2.15144 9.5817 2.1127 9.37531 2.08523 9.16611C2.07396 9.10765 2.06551 9.04496 2.05846 8.98297C2.03945 8.82449 2.02324 8.66037 2.01127 8.49343C2.00951 8.45469 2.00863 8.41595 2.00775 8.37721C2.00687 8.33846 2.00599 8.29972 2.00423 8.26098C2.00423 8.21845 2.00319 8.17608 2.00214 8.1333ZM13.537 14.5013C14.4261 13.5832 14.923 12.3551 14.9226 11.0771C14.9228 9.9801 14.5566 8.91519 13.8822 8.05001C13.2078 7.18484 12.2638 6.56965 11.1999 6.30208C11.6705 6.66343 11.9769 7.23468 11.9769 7.87144C11.9768 8.34302 11.8079 8.79901 11.5008 9.15689C11.1937 9.51477 10.7687 9.75091 10.3026 9.82258C10.2979 9.82258 10.2933 9.82383 10.2896 9.82485C10.2871 9.82553 10.285 9.8261 10.2835 9.8261L10.1899 9.83807C10.1778 9.83871 10.1659 9.83938 10.1541 9.84004C10.1011 9.84299 10.0504 9.84582 9.99967 9.84582C9.19529 9.84254 8.42161 10.1544 7.84437 10.7146C7.26712 11.2748 6.93222 12.0388 6.91141 12.8429C6.89059 13.647 7.18552 14.4273 7.73301 15.0166C8.2805 15.606 9.037 15.9574 9.84048 15.9958C9.8676 15.9958 9.89384 15.9968 9.92007 15.9979C9.94631 15.9989 9.97255 16 9.99967 16C10.0539 16 10.1046 16 10.1589 15.9958C11.4363 15.9553 12.6478 15.4193 13.537 14.5013Z" fill="#0064FF"/>
</svg>
