<svg width="16" height="16" viewBox="0 0 16 16" fill="none" xmlns="http://www.w3.org/2000/svg">
<g clip-path="url(#clip0_12619_2263)">
<path fill-rule="evenodd" clip-rule="evenodd" d="M10.6667 6.66669C9.19391 6.66669 8 7.86059 8 9.33335V12C8 13.4728 9.19391 14.6667 10.6667 14.6667H14.6667L16 16V14.6667V13.3334V9.33335C16 7.86059 14.8061 6.66669 13.3333 6.66669H10.6667Z" fill="#33DDFF"/>
<path fill-rule="evenodd" clip-rule="evenodd" d="M0 4C0 1.79086 1.79086 0 4 0H8C10.2091 0 12 1.79086 12 4V8C12 10.2091 10.2091 12 8 12H2.66667L0 14.6667V12V10.6667V4ZM5.072 5.90932L5.41334 7.30666H6.33067L6.43734 6.90132C6.75734 6.80888 7.04889 6.67732 7.312 6.50666C7.57511 6.33599 7.80267 6.14044 7.99467 5.91999C8.19378 5.69244 8.34667 5.45066 8.45334 5.19466C8.56711 4.93866 8.624 4.6791 8.624 4.41599C8.624 4.00355 8.51378 3.63377 8.29334 3.30666C8.07289 2.97243 7.77422 2.71288 7.39734 2.52799C7.02045 2.33599 6.59734 2.23999 6.128 2.23999C5.64445 2.23999 5.17867 2.3751 4.73067 2.64532C4.28978 2.91555 3.90934 3.29599 3.58934 3.78666L4.752 4.86399C4.95111 4.49421 5.168 4.22755 5.40267 4.06399C5.63734 3.89332 5.872 3.80799 6.10667 3.80799C6.27022 3.80799 6.41245 3.83643 6.53334 3.89332C6.65422 3.95021 6.75022 4.03199 6.82134 4.13866C6.89245 4.23821 6.928 4.3591 6.928 4.50132C6.928 4.64355 6.896 4.77866 6.832 4.90666C6.768 5.02755 6.67911 5.14132 6.56534 5.24799C6.45867 5.34755 6.32711 5.43644 6.17067 5.51466C6.01422 5.59288 5.84356 5.66755 5.65867 5.73866C5.47378 5.80266 5.27822 5.85955 5.072 5.90932ZM5.28534 8.34132C5.11467 8.5191 5.02934 8.75021 5.02934 9.03466C5.02934 9.34044 5.10756 9.5751 5.264 9.73866C5.42756 9.90221 5.65511 9.98399 5.94667 9.98399C6.224 9.98399 6.448 9.8951 6.61867 9.71732C6.78934 9.53955 6.87467 9.31199 6.87467 9.03466C6.87467 8.72888 6.79289 8.49421 6.62934 8.33066C6.46578 8.15999 6.23822 8.07466 5.94667 8.07466C5.67645 8.07466 5.456 8.16355 5.28534 8.34132Z" fill="#0064FF"/>
</g>
<defs>
<clipPath id="clip0_12619_2263">
<rect width="16" height="16" fill="white"/>
</clipPath>
</defs>
</svg>
